<svg width="90" height="25" viewBox="0 0 90 25" xmlns="http://www.w3.org/2000/svg">
    <g fill="#FFF" fill-rule="nonzero">
        <path d="m46.762 7.813 3.354-.126-2.814 9.317h6.016l2.814-9.317 3.276.126 1.336-4.424H48.098zM.559 21.063v1.566h37.565l.175-1.566zM38.046 23.336H.558v1.566l37.313-.001zM.559 18.743v1.659h37.814l.185-1.66zM41.9 21.462h.222c.394 0 .828-.066.91-.57.074-.486-.377-.51-.746-.51h-.214l-.172 1.08zm-1.732-2.78h2.848c1.444 0 2.396.743 2.158 2.285-.205 1.27-1.116 2.062-2.372 2.062h-1.148l-.296 1.872h-2.166l.976-6.218zM45.567 18.683h2.166l-.328 2.094h1.379l.328-2.094h2.166l-.976 6.218h-2.167l.337-2.16h-1.379l-.336 2.16H44.59z"/>
        <path d="m54.395 22.65-.09-1.097c-.025-.264-.016-.537-.016-.8h-.082l-.714 1.897h.902zm-1.838 2.25h-2.38l3.127-6.217h2.486l1.23 6.218h-2.379l-.081-.775h-1.7l-.303.775z"/>
        <path d="M59.662 21.437h.156c.37 0 .747-.057.82-.52.074-.478-.253-.535-.64-.535h-.171l-.165 1.055zm-1.772-2.754h2.716c1.395 0 2.486.593 2.24 2.16-.147.94-.574 1.337-1.452 1.617l-.008.05c.098.09.221.189.32.37l1.026 2.021h-2.594l-.673-1.996h-.04l-.312 1.996h-2.2l.977-6.218z"/>
        <path d="M64.273 18.683h2.314l.345 3.265h.057c.082-.272.164-.56.287-.824l1.075-2.441h2.29l.04 6.218h-2.174l.23-3.406h-.04c-.075.206-.149.42-.24.618l-1.336 2.788h-1.314l-.385-2.63c-.025-.265-.05-.512-.025-.776h-.074c-.05.247-.107.503-.172.75l-.681 2.656h-2.175l1.978-6.218z"/>
        <path d="m74.849 22.65-.09-1.097c-.026-.264-.017-.537-.017-.8h-.082l-.714 1.897h.903zM73.01 24.9h-2.38l3.126-6.217h2.487l1.23 6.218h-2.38l-.081-.775h-1.699l-.303.775z"/>
        <path d="M82.044 21.206c-.312-.338-.714-.627-1.223-.627-.672 0-1.305.537-1.411 1.213-.107.684.386 1.212 1.059 1.212.517 0 .968-.223 1.387-.577l-.435 2.326c-.386.173-1.24.247-1.642.247-1.764 0-2.921-1.377-2.642-3.15.279-1.815 1.928-3.266 3.742-3.266.509 0 1.026.09 1.469.255l-.304 2.367z"/>
        <path d="m84.792 18.683.435 1.624h.066c.098-.198.188-.396.295-.585l.607-1.04h2.528l-2.675 3.538-.419 2.68h-2.2l.42-2.68-1.6-3.537h2.543zM46.762 7.813l3.354-.126-2.814 9.317h6.016l2.814-9.317 3.276.126 1.336-4.424H48.098z"/>
        <g>
            <path d="M22.041 10.305c-.298 1.553.77 2.618 2.592 2.618s3.3-1.065 3.6-2.618c.278-1.445-.675-2.654-2.585-2.654s-3.328 1.21-3.607 2.654m12.265-.072c-.84 4.37-5.45 6.988-10.5 6.988s-8.651-2.619-7.81-6.988c.824-4.28 5.486-7.06 10.514-7.06 5.027 0 8.62 2.78 7.796 7.06"/>
            <path d="M32.436 15.975c1.717.776 4.042 1.246 6.128 1.246 3.578 0 7.488-1.608 8.113-4.858.445-2.31-1.184-3.43-3.64-3.9l-1.312-.252c-.444-.09-1.177-.163-1.079-.669.108-.56.908-.722 1.434-.722 1.296 0 2.373.452 3.293 1.03l2.296-3.486c-1.469-.812-3.13-1.191-5.018-1.191-3.6 0-7.527 1.805-8.15 5.038-.41 2.13 1.347 3.267 3.63 3.61l1.174.181c.53.09 1.31.145 1.193.759-.118.614-1.1.812-1.693.812-1.384 0-2.571-.56-3.515-1.246l-.269-.198-2.585 3.846zM72.455 3.732a13.92 13.92 0 0 0-3.932-.56c-4.852 0-9.262 3.179-10.027 7.151-.747 3.882 2.36 6.897 7.08 6.897 1.077 0 3.347-.162 4.386-.541l1.156-5.092c-1.115.776-2.307 1.264-3.69 1.264-1.8 0-3.137-1.156-2.848-2.654.285-1.481 1.982-2.655 3.782-2.655 1.362 0 2.447.632 3.27 1.372l.823-5.182zM81.224 7.65c1.91 0 2.863 1.21 2.585 2.655-.3 1.553-1.778 2.618-3.6 2.618s-2.89-1.065-2.591-2.618c.277-1.445 1.696-2.654 3.606-2.654m.862-4.478c-5.027 0-9.69 2.78-10.515 7.06-.84 4.37 2.761 6.987 7.811 6.987s9.659-2.618 10.5-6.987c.824-4.28-2.768-7.06-7.796-7.06M17.547.676A17.87 17.87 0 0 0 12.643 0C6.592 0 1.092 3.841.138 8.643c-.932 4.693 2.945 8.338 8.832 8.338 1.342 0 4.174-.197 5.47-.655l1.44-6.155c-1.39.938-2.876 1.528-4.601 1.528-2.246 0-3.913-1.397-3.553-3.209.355-1.79 2.472-3.208 4.717-3.208 1.698 0 3.052.764 4.08 1.658L17.546.676z"/>
        </g>
        <g>
            <path d="M88.355 16.151c.114 0 .211 0 .23-.096.015-.08-.083-.08-.197-.08h-.245l-.032.176h.244zm.33.554h-.266l-.167-.382h-.174l-.072.382h-.227l.17-.902h.522c.23 0 .355.064.315.276-.029.154-.15.234-.289.244l.189.382zm.368-.45c.072-.384-.202-.635-.642-.635-.448 0-.809.251-.882.635-.073.384.194.638.642.638.44 0 .81-.254.882-.638zm-1.792 0c.09-.476.618-.86 1.193-.86.572 0 .957.384.868.86-.091.479-.622.863-1.194.863-.574 0-.958-.384-.867-.863z"/>
        </g>
    </g>
</svg>
