<?xml version="1.0" encoding="UTF-8"?>
<svg width="127px" height="33px" viewBox="0 0 127 33" version="1.1" xmlns="http://www.w3.org/2000/svg" xmlns:xlink="http://www.w3.org/1999/xlink">
    <title>8FD91652-0C22-440F-ADF5-DAA26A3BA71D</title>
    <g id="Home-page-map-update---100121" stroke="none" stroke-width="1" fill="none" fill-rule="evenodd">
        <g id="1200-Home-Page-/-Updated-pharmacies-section" transform="translate(-378.000000, -1159.000000)" fill-rule="nonzero">
            <g id="✱-/-Logos-/-Walmart" transform="translate(378.411365, 1159.000000)">
                <g id="Walmart_logo" transform="translate(0.376582, 2.918523)">
                    <g id="Shape" transform="translate(62.400732, 14.071492) scale(-1, 1) rotate(-180.000000) translate(-62.400732, -14.071492) ">
                        <path d="M0,5.62945659 C0,5.62945659 3.1052084,17.5117341 3.60078982,19.4404063 C4.17921919,21.6915138 5.2214465,22.5200301 8.22638376,21.9612778 L10.1653607,14.5943439 C10.6567914,12.7644497 10.9864091,11.4598608 11.3023025,9.59839517 L11.3578742,9.59839517 C11.5798398,11.4781473 11.8959006,12.76992 12.3003158,14.600752 C12.3003158,14.600752 13.0896141,17.9451383 13.4938117,19.7017305 C13.8990805,21.4576974 15.0269341,22.5644177 17.9702793,21.961903 L22.5903501,5.63070694 L18.8601836,5.63070694 L17.2829258,12.6914603 C16.8588614,14.7467309 16.4740452,16.3526553 16.1773658,18.2328762 L16.1247365,18.2328762 C15.855104,16.3714106 15.5121637,14.829098 15.0810196,12.8266549 L13.4387053,5.63070694 L9.55221553,5.63070694 L7.79550409,12.6453534 C7.29781381,14.7768957 6.83232545,16.4981653 6.53631555,18.3146182 L6.48270539,18.3146182 C6.17956555,16.6039766 5.7758031,14.4407066 5.33858347,12.3773086 C5.33858347,12.3773086 4.29488331,7.36010387 3.92869534,5.63070694 L0.000363192056,5.63117583 L0,5.62945659 Z M35.5593476,5.62945659 L35.5593476,21.9606526 L39.1107634,21.9606526 L39.1107634,18.4927937 L39.1107634,5.62867512 L35.5593476,5.62867512 L35.5593476,5.62945659 Z M85.5777559,5.62945659 L85.5777559,17.6772498 C85.5777559,19.3383461 85.9125286,20.5021138 86.6287199,21.2130968 C87.2544312,21.8349138 88.2850765,22.2375593 89.52003,22.2375593 C90.5700232,22.2375593 91.6031121,22.0516003 92.0899903,21.8822398 L92.0442265,19.290567 C91.6819382,19.3738328 91.2651544,19.4404517 90.695127,19.4404517 C89.4853627,19.4404517 89.0796253,18.7169026 89.0796253,17.2254482 L89.0796253,12.6160154 L92.1726157,12.6160154 L92.1726157,9.49137887 L89.0796253,9.49137887 L89.0796253,5.62945659 L85.5775835,5.62945659 L85.5777559,5.62945659 Z M27.6226806,9.4153745 C25.4155776,9.4153745 23.6635525,9.99406994 22.7085415,10.5094349 L23.4074435,12.7442877 C24.2814644,12.2297355 25.6731259,11.8037709 26.9908269,11.8037709 C29.1724898,11.798535 29.5291544,12.9557384 29.5291544,13.6979021 L29.5291544,13.8734206 C24.7753553,13.8667578 21.7725771,15.4028858 21.7725771,18.534118 C21.7725771,20.4459104 23.3011638,22.2375124 25.9591606,22.2375124 C27.5953659,22.2375124 28.9637799,21.6281364 29.783891,20.65175 L29.864307,20.65175 C29.864307,20.65175 30.4073879,22.7721954 33.3993206,21.9613247 C33.2421404,21.0787931 33.1910961,20.1378386 33.1910961,19.0045483 L33.1910961,14.641748 C33.1910961,11.8611153 31.9197063,9.4153745 27.6227091,9.4153745 L27.6226806,9.4153745 Z M48.8669054,9.4153745 C46.6445717,9.4153745 45.6458772,10.4670791 45.040334,11.3593636 L44.9877046,11.3593636 L44.9877046,9.69232807 L41.59847,9.69232807 L41.59847,21.9614341 L45.1687985,21.9614341 L45.1687985,14.7661114 C45.1687985,14.4287969 45.2100769,14.072102 45.3361681,13.7617952 C45.6319772,13.0373553 46.3537419,12.189943 47.5061151,12.189943 C48.9466989,12.189943 49.6208302,13.3272969 49.6208302,14.9687001 L49.6208302,21.9614341 L53.1873092,21.9614341 L53.1873092,14.6789304 C53.1873092,14.3569328 53.2345794,13.9690884 53.3360472,13.6843826 C53.6292621,12.8603363 54.4073634,12.1898179 55.4785456,12.1898179 C56.9390129,12.1898179 57.6399568,13.307385 57.6399568,15.238808 L57.6399568,21.9614341 L61.2089464,21.9614341 L61.2089464,14.7352276 C61.2089464,10.9243026 59.1367432,9.4153745 56.7975855,9.4153745 C55.7616346,9.4153745 54.9439671,9.65800584 54.2046955,10.0818292 C53.5832856,10.437899 53.0270495,10.9438081 52.5408073,11.6099659 L52.4881779,11.6099659 C51.9224686,10.2877158 50.5952276,9.4153745 48.8662995,9.4153745 L48.8669054,9.4153745 Z M68.4725817,9.4153745 C66.2659807,9.4153745 64.5142903,9.99406994 63.5584425,10.5094349 L64.2583153,12.7442877 C65.1314825,12.2297355 66.5239977,11.8037709 67.8410292,11.8037709 C70.0211857,11.798535 70.3786872,12.9557384 70.3786872,13.6979021 L70.3786872,13.8734206 C65.6255576,13.8667578 62.6224447,15.4028858 62.6224447,18.534118 C62.6224447,20.4459104 64.151818,22.2375124 66.8112039,22.2375124 C68.4461038,22.2375124 69.8149864,21.6281364 70.6335911,20.65175 L70.7143352,20.65175 C70.7143352,20.65175 71.2573157,22.7721954 74.2496835,21.9613247 C74.0922724,21.0787931 74.041777,20.1378386 74.041777,19.0045483 L74.041777,14.641748 C74.041777,11.8611153 72.7700525,9.4153745 68.4725532,9.4153745 L68.4725817,9.4153745 Z M83.299186,9.41525884 C81.9320106,9.41525884 80.3765779,10.2394833 79.723669,12.0061096 L79.623967,12.0061096 L79.623967,9.69217178 L76.4099683,9.69217178 L76.4099683,21.9612778 L80.0738565,21.9612778 L80.0738565,15.6787141 C80.0738565,15.3397898 80.0958622,15.0442841 80.1532918,14.7733009 C80.4242632,13.4572713 81.5022071,12.6159701 83.0492881,12.6159701 C83.4739885,12.6159701 83.7779485,12.658926 84.1067963,12.7032745 L84.1067963,9.49126947 C83.8310549,9.43924221 83.6424628,9.41525884 83.2993718,9.41525884 L83.299186,9.41525884 Z M29.6438361,16.0475687 L29.6438361,17.5781592 C29.6438361,17.8045672 29.6227324,18.0381647 29.5555754,18.2424102 C29.280721,19.0924795 28.3376937,19.8108239 27.1588425,19.8108239 C26.1760147,19.8108239 25.3952689,19.2899418 25.3952689,18.1880198 C25.3952689,16.5025415 27.3821136,16.0366281 29.6439465,16.0475687 L29.6438361,16.0475687 Z M70.4937371,16.0475687 L70.4937371,17.5781592 C70.4937371,17.8045672 70.4721933,18.0381647 70.4054764,18.2424102 C70.130622,19.0924795 69.1879294,19.8108239 68.0090783,19.8108239 C67.0260329,19.8108239 66.24517,19.2899418 66.24517,18.1880198 C66.24517,16.5025415 68.2320146,16.0366281 70.4938475,16.0475687 L70.4937371,16.0475687 Z" fill="#007DC6" transform="translate(46.086308, 13.933117) scale(-1, 1) rotate(-180.000000) translate(-46.086308, -13.933117) "></path>
                        <path d="M111.374434,-7.31366415e-14 C110.227919,-7.31366415e-14 109.316625,0.597888385 109.316625,1.32575115 L110.012916,8.68830883 C110.08978,9.13188781 110.671649,9.47404739 111.375087,9.47404739 C112.079914,9.47318777 112.659749,9.13132515 112.738229,8.68830883 L113.437834,1.32575115 C113.437834,0.597950903 112.523996,-7.31366415e-14 111.37584,-7.31366415e-14 L111.374434,-7.31366415e-14 Z M100.027611,5.9058944 C99.4323948,5.91908251 98.7562383,6.33990816 98.3261318,7.03627761 C97.750916,7.96355633 97.8528441,8.99980346 98.5258707,9.36334411 L105.701173,12.4837607 C106.149423,12.6394486 106.758213,12.3421862 107.110743,11.7746376 C107.110794,11.774559 107.110695,11.7744032 107.110743,11.774325 C107.464914,11.2039757 107.437499,10.5626844 107.064652,10.2782287 L100.5841,6.03358688 C100.415793,5.9425548 100.226465,5.90159161 100.028048,5.90598661 L100.027611,5.9058944 Z M122.721257,5.9058944 C122.52289,5.90149784 122.333846,5.94246258 122.165858,6.03349466 L115.684469,10.2781365 C115.313829,10.5625765 115.286347,11.2038991 115.638706,11.7742328 L115.63904,11.7745454 C115.992876,12.3420971 116.599692,12.6393533 117.047958,12.4836685 L124.22644,9.36340819 C124.902262,8.99986754 124.999119,7.9636673 124.427803,7.03634169 C123.995755,6.33995661 123.318477,5.91914972 122.723311,5.90595848 L122.721257,5.9058944 Z M105.969233,15.6197442 C105.876408,15.618572 105.786415,15.6319633 105.702161,15.6615654 L98.5268582,18.778231 C97.8538483,19.1433658 97.7519202,20.1800037 98.3271193,21.1082671 C98.9005946,22.0337171 99.9114233,22.4736857 100.584601,22.1107546 L107.065654,17.869395 C107.438554,17.5814695 107.466069,16.9403501 107.111746,16.3705635 L107.114692,16.3718138 C106.828222,15.9076978 106.371504,15.6247581 105.969248,15.6196473 L105.969233,15.6197442 Z M116.782816,15.6197442 C116.381028,15.624855 115.925214,15.9077947 115.638041,16.3719107 L115.640652,16.3706604 C115.288071,16.940447 115.315369,17.5815664 115.68609,17.8694919 L122.167478,22.1108515 C122.8394,22.4737826 123.851216,22.0338281 124.427302,21.108364 C124.998618,20.1800693 124.901762,19.1434315 124.22594,18.7783279 L117.049633,15.6616623 C116.965384,15.6320602 116.875602,15.6186611 116.782879,15.6198411 L116.782816,15.6197442 Z M111.37343,18.6710787 C110.67118,18.6718602 110.090642,19.0125662 110.013887,19.4549886 L109.317595,26.8172337 C109.317595,27.5463156 110.228873,28.1429848 111.375405,28.1429848 C112.524062,28.1429848 113.437064,27.5462999 113.437064,26.8172337 L112.739149,19.4549886 C112.660668,19.0125662 112.080834,18.6719227 111.376007,18.6710787 L111.373396,18.6710787 L111.37343,18.6710787 Z" fill="#FFC220" transform="translate(111.376282, 14.071492) scale(-1, 1) rotate(-180.000000) translate(-111.376282, -14.071492) "></path>
                    </g>
                </g>
            </g>
        </g>
    </g>
</svg>