<?xml version="1.0" encoding="UTF-8"?>
<svg width="135px" height="16px" viewBox="0 0 135 16" version="1.1" xmlns="http://www.w3.org/2000/svg" xmlns:xlink="http://www.w3.org/1999/xlink">
    <title>062CF049-3145-4F22-92F0-67827A70F3F5</title>
    <g id="Home-page-map-update---100121" stroke="none" stroke-width="1" fill="none" fill-rule="evenodd">
        <g id="1200-Home-Page-/-Updated-pharmacies-section" transform="translate(-55.000000, -1167.000000)" fill="#CC0000" fill-rule="nonzero">
            <g id="CVS-logo" transform="translate(55.000000, 1167.000000)">
                <path d="M60.3166318,5.36721218 L62.1016426,5.36721218 L62.1016426,6.36718707 L62.1462679,6.36718707 C62.7040838,5.67332695 63.5073387,5.16313567 64.6899083,5.16313567 C66.854234,5.16313567 68.2822427,6.75493244 68.2822427,9.18344289 C68.2822427,11.632361 66.8765467,13.1833425 64.6899083,13.1833425 C63.5296513,13.1833425 62.7710217,12.7955972 62.2132059,12.101737 L62.1685806,12.101737 L62.1685806,15.7751142 L60.3612571,15.7751142 L60.3166318,5.36721218 Z M66.3856687,9.22425819 C66.3856687,7.69368438 65.7386022,6.55085593 64.2882809,6.55085593 C62.7263964,6.55085593 62.0793301,7.75490733 62.0793301,9.22425819 C62.0793301,10.7140167 62.7933344,11.7956222 64.3552189,11.7956222 C65.627039,11.7956222 66.3856687,10.7956473 66.3856687,9.22425819 Z M71.2498232,6.38759472 L71.2944485,6.38759472 C71.8968896,5.612104 72.6332066,5.18354332 73.7934636,5.18354332 C75.5338492,5.18354332 76.6271684,6.24474117 76.6271684,7.87735324 L76.6271684,12.979266 L74.8198449,12.979266 L74.8198449,8.08142976 C74.8198449,7.20390076 74.2174038,6.63248653 73.2133351,6.63248653 C72.0977034,6.63248653 71.2721358,7.40797727 71.2721358,8.50999042 L71.2721358,12.979266 L69.4648124,12.979266 L69.4648124,2.4081028 L71.2721358,2.4081028 L71.2721358,6.38759472 L71.2498232,6.38759472 Z M83.1424579,11.9996987 C82.6738926,12.5915207 81.9598883,13.1425272 80.5541922,13.1425272 C78.9476824,13.1425272 77.7651127,12.3874441 77.7651127,10.9180932 C77.7651127,9.18344289 79.2600593,8.71406693 81.178946,8.46917512 C82.4284535,8.28550626 83.1424579,8.18346801 83.1424579,7.51001552 C83.1424579,6.8569707 82.5846421,6.44881768 81.5582608,6.44881768 C80.4426291,6.44881768 79.9071258,6.8569707 79.8625006,7.73449968 L78.1221149,7.73449968 C78.1667401,6.34677942 79.2154341,5.20395097 81.5359481,5.20395097 C83.7672117,5.20395097 84.9274687,6.06107231 84.9274687,7.81613028 L84.9274687,11.1425774 C84.9274687,11.6935839 85.0390319,11.9180681 85.641473,11.8160299 L85.6860983,11.8160299 L85.6860983,12.8772278 C85.5075972,12.979266 85.2621583,13.040489 84.8382181,13.040489 C83.8341496,13.0813043 83.2986464,12.7751894 83.1424579,11.9996987 Z M83.1647706,10.2446407 L83.1647706,9.04058934 C82.7631431,9.26507349 82.1383893,9.40792706 81.5359481,9.53037297 C80.3533785,9.77526477 79.6393742,9.97934128 79.6393742,10.8568703 C79.6393742,11.6935839 80.2418153,11.9180681 81.0227576,11.9180681 C82.4507662,11.9384758 83.1647706,11.0405391 83.1647706,10.2446407 Z M88.4751778,6.63248653 L88.519803,6.63248653 C89.0329937,5.81618051 89.6800601,5.32639688 90.728754,5.32639688 C90.9741929,5.32639688 91.1080687,5.34680453 91.2642572,5.38761983 L91.2642572,6.897786 L91.219632,6.897786 C91.1080687,6.8569707 90.9518803,6.8569707 90.7733793,6.8569707 C89.5238717,6.8569707 88.5421157,7.63246143 88.5421157,9.08140464 L88.5421157,12.979266 L86.7347922,12.979266 L86.7347922,5.38761983 L88.519803,5.38761983 L88.4751778,6.63248653 Z M92.1344499,5.36721218 L93.9194609,5.36721218 L93.9194609,6.42841003 L93.9640862,6.42841003 C94.4326514,5.7345499 95.2805316,5.18354332 96.3738508,5.18354332 C97.400232,5.18354332 98.2257994,5.6937346 98.6051143,6.53044828 L98.6497396,6.53044828 C99.1852428,5.67332695 100.122373,5.18354332 101.171067,5.18354332 C102.79989,5.18354332 103.803958,6.16311057 103.803958,7.77531498 L103.803958,12.979266 L101.974322,12.979266 L101.974322,7.99979914 C101.974322,7.10186251 101.416506,6.61207888 100.613251,6.61207888 C99.6314955,6.61207888 98.8728659,7.34675432 98.8728659,8.42835982 L98.8728659,12.9588584 L97.0655424,12.9588584 L97.0655424,7.97939149 C97.0655424,7.08145486 96.5300391,6.59167123 95.7267843,6.59167123 C94.7896536,6.59167123 93.9640862,7.32634667 93.9640862,8.40795217 L93.9640862,12.9384507 L92.1567626,12.9384507 L92.1344499,5.36721218 Z M110.319248,11.9996987 C109.850683,12.5915207 109.136678,13.1425272 107.730982,13.1425272 C106.124472,13.1425272 104.941903,12.3874441 104.941903,10.9180932 C104.941903,9.18344289 106.436849,8.71406693 108.355736,8.46917512 C109.605244,8.28550626 110.319248,8.18346801 110.319248,7.51001552 C110.319248,6.8569707 109.761432,6.44881768 108.735051,6.44881768 C107.619419,6.44881768 107.083916,6.8569707 107.039291,7.73449968 L105.298905,7.73449968 C105.34353,6.34677942 106.392224,5.20395097 108.712738,5.20395097 C110.944002,5.20395097 112.104259,6.06107231 112.104259,7.81613028 L112.104259,11.1425774 C112.104259,11.6935839 112.215822,11.9180681 112.818263,11.8160299 L112.862888,11.8160299 L112.862888,12.8772278 C112.684387,12.979266 112.438948,13.040489 112.015008,13.040489 C111.01094,13.0813043 110.475436,12.7751894 110.319248,11.9996987 Z M110.319248,10.2446407 L110.319248,9.04058934 C109.91762,9.26507349 109.292867,9.40792706 108.690426,9.53037297 C107.507856,9.77526477 106.793851,9.97934128 106.793851,10.8568703 C106.793851,11.6935839 107.396293,11.9180681 108.177235,11.9180681 C109.627556,11.9384758 110.319248,11.0405391 110.319248,10.2446407 Z M113.443017,9.18344289 C113.443017,6.9386013 115.027214,5.18354332 117.526229,5.18354332 C119.601304,5.18354332 120.91775,6.26514882 121.207814,7.89776089 L119.40049,7.89776089 C119.244302,7.08145486 118.574923,6.53044828 117.593167,6.53044828 C116.075908,6.53044828 115.294966,7.61205378 115.294966,9.16303524 C115.294966,10.6936091 116.053595,11.7956222 117.570854,11.7956222 C118.664174,11.7956222 119.355865,11.2650233 119.467428,10.285456 L121.252439,10.285456 C121.118563,11.9792911 119.757493,13.1833425 117.593167,13.1833425 C115.049527,13.2037502 113.443017,11.4282845 113.443017,9.18344289 Z M122.256508,15.7751142 L122.256508,14.4078015 L122.301133,14.4078015 C122.501947,14.4690245 122.747386,14.5098398 123.03745,14.5098398 C123.729142,14.5098398 124.041519,14.2853556 124.286958,13.6527185 L124.621647,12.7955972 L121.497878,5.38761983 L123.439078,5.38761983 L124.978649,9.34670411 C125.246401,10.0201566 125.514153,10.9385009 125.514153,10.9385009 L125.558778,10.9385009 C125.558778,10.9385009 125.82653,10.0201566 126.094281,9.34670411 L127.566915,5.38761983 L129.441176,5.38761983 L126.094281,13.7547567 C125.469527,15.3873687 124.844774,15.8771524 123.416765,15.8771524 C122.9482,15.8975601 122.61351,15.8567448 122.256508,15.7751142 Z M48.8925624,9.02018169 C49.1156888,9.95893363 49.6958173,10.285456 50.9006996,10.285456 C51.9717061,10.285456 52.5518347,9.93852598 52.5518347,9.38751941 C52.5518347,8.59162102 51.7708924,8.53039807 50.14207,8.14265271 C48.2231834,7.67327673 46.9959885,7.28553137 46.4381726,6.91819365 C45.3671661,6.24474117 44.8539754,5.26517392 44.8539754,4.02030722 C44.8539754,1.59179677 46.9513632,0 50.6106354,0 C54.1583445,0 56.2334195,1.42853556 56.4788585,3.95908427 L52.3063957,3.95908427 C52.1725199,3.20400119 51.5923914,2.85707112 50.5213849,2.85707112 C49.5842542,2.85707112 49.1380015,3.14277824 49.1380015,3.71419246 C49.1380015,4.38764495 49.8520058,4.51009085 51.1684512,4.81620561 C52.8865242,5.22435862 54.2252823,5.46925043 55.0954752,6.02025701 C56.3003575,6.75493244 56.8581733,7.65286908 56.8581733,8.95895873 C56.8581733,11.6935839 54.7161603,13.2853808 50.7221985,13.2853808 C47.0406138,13.2853808 44.8762881,11.6935839 44.5862238,8.99977404 L48.8925624,8.99977404 L48.8925624,9.02018169 Z M32.6712765,8.0610221 C32.4258375,11.3670615 30.0383854,13.3057884 26.0890491,13.3057884 C21.6934599,13.3057884 19.0382562,10.754832 19.0382562,6.67330183 C19.0382562,2.55095636 21.7380851,0.0408153017 26.0221111,0.0408153017 C30.0160729,0.0408153017 32.3588996,1.87750389 32.6266513,5.14272802 L28.4318757,5.14272802 C28.3203126,3.87745367 27.5170577,3.18359354 26.0890491,3.18359354 C24.3486634,3.18359354 23.5007833,4.34682964 23.5007833,6.67330183 C23.5007833,8.95895873 24.4379139,10.1426025 26.2229249,10.1426025 C27.561683,10.1426025 28.4095631,9.40792706 28.543439,8.0610221 L32.6712765,8.0610221 Z M31.7341457,0.387745367 L36.2412982,0.387745367 L38.5618122,8.50999042 L41.0385148,0.387745367 L45.3671661,0.387745367 L40.7484505,12.979266 L36.3528613,12.979266 L31.7341457,0.387745367 Z M4.89204533,0.0408153017 C4.35654208,0.0408153017 3.84335146,0.22448416 3.46403666,0.591821876 L0.585706681,3.24481649 C-0.19523556,3.95908427 -0.19523556,5.14272802 0.585706681,5.87740346 L8.72981863,13.3057884 L16.851618,5.85699581 C17.6325601,5.14272802 17.6325601,3.95908427 16.851618,3.22440884 L13.9732879,0.591821876 C13.5716605,0.22448416 13.0361573,0.0408153017 12.5452793,0.0408153017 C12.009776,0.0408153017 11.4965854,0.22448416 11.094958,0.591821876 L8.72981863,2.77544052 L6.34236663,0.591821876 C5.9407392,0.22448416 5.42754857,0.0408153017 4.89204533,0.0408153017 Z" id="Shape"></path>
                <path d="M132.617647,5.05347594 C131.680014,5.05347594 131.029412,4.44196289 131.029412,3.60962567 C131.029412,2.7433155 131.775691,2.1657754 132.617647,2.1657754 C133.459603,2.1657754 134.205882,2.72632903 134.205882,3.60962567 C134.205882,4.49292231 133.478738,5.05347594 132.617647,5.05347594 Z M132.617647,2.42057251 C131.909639,2.42057251 131.373848,2.91318024 131.373848,3.60962567 C131.373848,4.27209815 131.852232,4.79867883 132.617647,4.79867883 C133.30652,4.79867883 133.861446,4.3060711 133.861446,3.60962567 C133.861446,2.91318024 133.30652,2.42057251 132.617647,2.42057251 Z M132.311481,4.42497641 L132.024451,4.42497641 L132.024451,2.84523435 L132.694189,2.84523435 C133.134302,2.84523435 133.344791,2.98112613 133.344791,3.30386914 C133.344791,3.59263919 133.153437,3.71154451 132.885542,3.72853098 L133.383062,4.44196289 L133.05776,4.44196289 L132.598512,3.76250393 L132.330617,3.76250393 L132.330617,4.42497641 L132.311481,4.42497641 Z M132.636782,3.54167977 C132.866407,3.54167977 133.05776,3.5246933 133.05776,3.30386914 C133.05776,3.10003145 132.847271,3.08304498 132.655918,3.08304498 L132.292346,3.08304498 L132.292346,3.54167977 L132.636782,3.54167977 Z" id="Shape"></path>
            </g>
        </g>
    </g>
</svg>