<svg width="91" height="25" xmlns="http://www.w3.org/2000/svg">
    <g fill="#3E902D" fill-rule="nonzero">
        <path d="M55.887 21.116h3.161V3.596h-3.16zM65.466 21.116h3.168V8.105h-3.168zM79.53 17.587c-1.045 2.03-1.87 3.58-1.915 3.58h-3.288l3.352-6.612-3.903-6.42h3.428l2.012 3.349 1.69-3.35h3.424s-1.61 3.227-3.26 6.46l3.947 6.573h-3.29l-2.197-3.58M19.458 15.491l-.006-7.385h2.996c.065 2.406-.037 5.137-.002 7.415 0 1.561 1.252 2.916 2.817 2.916 1.564 0 2.821-1.166 2.821-2.733l-.009-7.598h3.04c-.004 3.845-.04 4.609.001 7.493 0 3.223-2.669 5.834-5.89 5.834-3.224 0-5.768-2.717-5.768-5.942M43.405 18.325a3.646 3.646 0 1 0-.003-7.292 3.646 3.646 0 0 0 .003 7.292m.023-10.552a6.897 6.897 0 1 1 0 13.793c-3.808 0-6.935-3.298-6.935-7.107L36.5 3.588h3.162l-.022 5.473c1.1-.744 2.362-1.288 3.788-1.288M7.546 13.62a3.63 3.63 0 1 0 .005-7.259 3.63 3.63 0 0 0-.005 7.259m.007-10.533a6.898 6.898 0 0 1 0 13.795c-1.366 0-2.647-.35-3.719-1.036l-.007 5.29H.663L.662 9.853c0-3.809 3.083-6.767 6.891-6.767M88.776 19.748c.187 0 .352-.02.352-.242 0-.186-.179-.213-.33-.213h-.303v.455h.28zm-.28.872h-.257v-1.536h.58c.375 0 .561.126.561.44 0 .278-.168.396-.403.422l.433.674h-.274l-.4-.663h-.24v.663zm-.801-.772c0 .638.469 1.11 1.07 1.11.594 0 1.063-.472 1.063-1.11 0-.63-.47-1.101-1.063-1.101-.601 0-1.07.472-1.07 1.101m-.299 0c0-.788.635-1.341 1.369-1.341.729 0 1.362.553 1.362 1.341 0 .794-.633 1.352-1.362 1.352-.734 0-1.369-.558-1.369-1.352M67.194 6.74a1.955 1.955 0 1 0 0-3.911c-1.08 0-1.96.875-1.96 1.956 0 1.08.88 1.955 1.96 1.955"/>
    </g>
</svg>
