<?xml version="1.0" encoding="UTF-8"?>
<svg width="89px" height="48px" viewBox="0 0 89 48" version="1.1" xmlns="http://www.w3.org/2000/svg" xmlns:xlink="http://www.w3.org/1999/xlink">
    <title>8FBD1526-3EC6-4F0C-A65A-059349B5F8E1</title>
    <g id="Home-page-map-update---100121" stroke="none" stroke-width="1" fill="none" fill-rule="evenodd">
        <g id="1200-Home-Page-/-Updated-pharmacies-section" transform="translate(-658.000000, -1151.000000)" fill="#134B97" fill-rule="nonzero">
            <g id="kroger" transform="translate(658.558023, 1151.000000)">
                <path d="M23.4719923,20.024721 L23.4719923,17.7737339 L19.356306,17.7737339 L19.356306,31.576309 L23.5729144,31.576309 L23.5729144,23.9272103 C24.2954982,22.3290415 25.514628,21.5297282 27.2303037,21.5292704 C27.730861,21.5268796 28.2303154,21.5761279 28.7206328,21.6762232 L28.7206328,17.712618 C28.3588801,17.5821459 27.9194772,17.5169099 27.4024242,17.5169099 C25.9724641,17.5169099 24.6623201,18.3528469 23.4719923,20.024721 Z" id="Path"></path>
                <path d="M42.2075583,29.7545064 C43.5665504,28.3811159 44.2460465,26.6826896 44.2460465,24.6592275 C44.2460465,22.6527039 43.5665504,20.9602289 42.2075583,19.5818026 C40.8485661,18.2033763 39.1612315,17.5141631 37.1455545,17.5141631 C35.1298775,17.5141631 33.444847,18.2065808 32.0904632,19.5914163 C30.7360794,20.9762518 30.0586571,22.6655222 30.0581963,24.6592275 C30.0581963,26.6529328 30.7356186,28.3440343 32.0904632,29.7325322 C33.4453079,31.12103 35.1303383,31.8155079 37.1455545,31.8159693 C39.1612315,31.8177969 40.8485661,31.1306438 42.2075583,29.7545064 Z M34.9169733,27.0434335 C34.3381689,26.3961087 34.0487667,25.602289 34.0487667,24.6619742 C34.0487667,23.7376824 34.3381689,22.9500429 34.9169733,22.2990558 C35.4957777,21.6480687 36.2388685,21.3223462 37.1462458,21.3218884 C38.0531622,21.3218884 38.7983267,21.6476109 39.3817394,22.2990558 C39.9651521,22.9505007 40.2566281,23.7381402 40.2561678,24.6619742 C40.2561678,25.5945064 39.9646913,26.3862661 39.3817394,27.0372532 C38.7987876,27.6882403 38.053623,28.0137339 37.1462458,28.0137339 C36.2388685,28.0137339 35.4957777,27.6903004 34.9169733,27.0434335 Z" id="Shape"></path>
                <path d="M68.8254169,17.5169099 C66.8714912,17.5169099 65.2171061,18.1939914 63.8622615,19.5481545 C62.5074168,20.9023176 61.8299945,22.6069242 61.8299945,24.6619742 C61.8299945,26.7678398 62.4786149,28.4866381 63.7758556,29.8183691 C65.0730963,31.1501001 66.7726429,31.8168813 68.8744954,31.8187124 C70.2864832,31.8187124 71.4934009,31.5568526 72.4952486,31.033133 C73.5373707,30.4778957 74.4715611,29.7426267 75.2540165,28.8618026 L72.200086,27.1649785 C71.4120641,27.8791416 70.3857924,28.2362232 69.1212707,28.2362232 C67.306977,28.2362232 66.2396912,27.4369099 65.9194133,25.8382833 L75.4765981,25.8382833 C75.4787665,25.7257587 75.4870736,25.6134337 75.501483,25.5018026 C75.5176121,25.3594278 75.5298241,25.2289557 75.5381191,25.1103863 C75.5464141,24.9922747 75.5505615,24.8927039 75.5505615,24.8109871 C75.5505615,22.7884406 74.9224482,21.0675823 73.6662215,19.648412 C72.4099948,18.2292418 70.7963932,17.5187411 68.8254169,17.5169099 Z M65.9684919,23.3538197 C66.1735619,22.5879256 66.5224114,21.9969099 67.0150403,21.5807725 C67.4932396,21.1697935 68.1067574,20.9476543 68.739011,20.9565665 C69.3629768,20.9565665 69.9274954,21.1980544 70.4325668,21.68103 C70.9376381,22.1640057 71.2394827,22.7218312 71.3381007,23.3545064 L65.9684919,23.3538197 Z" id="Shape"></path>
                <path d="M85.3704203,17.5169099 C83.9418426,17.5169099 82.6323898,18.3530758 81.442062,20.0254077 L81.442062,17.7737339 L77.3284495,17.7737339 L77.3284495,31.576309 L81.5402191,31.576309 L81.5402191,23.9272103 C82.2628029,22.3290415 83.4819327,21.5297282 85.1976084,21.5292704 C85.6981662,21.5268697 86.1976217,21.5761181 86.6879375,21.6762232 L86.6879375,17.712618 C86.3243415,17.5821459 85.8851691,17.5169099 85.3704203,17.5169099 Z" id="Path"></path>
                <path d="M15.2986846,15.1697854 C15.361142,14.695031 15.3985206,14.2173521 15.4106666,13.7387124 L15.4161966,13.7387124 C15.4161966,8.33922747 19.8401791,3.94643777 25.2733827,3.94643777 C30.7065862,3.94643777 35.1305687,8.34128755 35.1305687,13.7387124 L39.1031668,13.7387124 C39.1031668,6.16309013 32.8992225,3.90341074e-15 25.2733827,3.90341074e-15 C17.7270362,3.90341074e-15 11.5770093,6.0360515 11.4484373,13.503176 L11.4415248,13.503176 C11.4385684,13.8920271 11.4110951,14.2803125 11.3592664,14.6657511 C11.1774683,16.0679828 10.6507379,18.0896137 9.17423376,19.7562232 C8.01915957,21.0609442 6.43896831,21.9440343 4.45923613,22.4041202 L4.45923613,13.2346781 L0.00138249454,13.2346781 L0.00138249454,31.5742489 L4.45992738,31.5742489 L4.45992738,26.4357082 C5.76939391,26.2172035 7.04328495,25.824549 8.24727117,25.2683262 L12.2675653,31.5735622 L17.600538,31.5735622 L11.7173325,22.8291845 C11.8666419,22.6774249 12.0138775,22.5229185 12.1562745,22.3629185 C14.2956848,19.9471245 15.0456881,17.1193133 15.2986846,15.1697854 Z" id="Path"></path>
                <path d="M60.050724,35.6099571 L60.050724,17.7737339 L56.0359599,17.7737339 L56.0359599,18.9486695 C55.0917161,17.9941631 53.8972408,17.5169099 52.452534,17.5169099 C50.6704986,17.5169099 49.126713,18.1825465 47.8211773,19.5138197 C46.5156417,20.845093 45.8628738,22.4961373 45.8628738,24.4669528 C45.8628738,26.4276967 46.5310795,28.0620315 47.8674909,29.3699571 C49.2039023,30.6778827 50.7310979,31.3316166 52.4490778,31.3311588 C53.8444756,31.3229185 55.0555408,30.9411159 56.0822735,30.1857511 C56.0822735,30.2132189 56.0822735,34.3450644 56.0822735,35.6106438 L56.0822735,35.6106438 C56.0402778,40.2292769 52.2594403,43.9514436 47.6100013,43.9514436 C42.9605623,43.9514436 39.1797248,40.2292769 39.1377291,35.6106438 L35.1658223,35.6106438 C35.1658223,42.4274678 40.7483353,47.9711588 47.6082732,47.9711588 C54.3465516,47.9711588 59.8474973,42.6224893 60.0438116,35.9745923 L60.0486503,35.9745923 L60.0486503,35.7864378 C60.0486503,35.7266953 60.053489,35.6683262 60.053489,35.6085837 L60.050724,35.6099571 Z M55.2050807,26.8065236 C54.6345713,27.4318741 53.8852592,27.7445494 52.9571445,27.7445494 C52.0456198,27.7445494 51.3004553,27.4318741 50.7216509,26.8065236 C50.1428465,26.1811731 49.8534443,25.4029185 49.8534443,24.4717597 C49.8534443,23.5415165 50.1428465,22.7632618 50.7216509,22.1369957 C51.3004553,21.5107296 52.0456198,21.1978255 52.9571445,21.1982828 C53.8765034,21.1982828 54.6237417,21.5111874 55.1988594,22.1369957 C55.7739772,22.762804 56.0613056,23.5410587 56.0608453,24.4717597 C56.0613056,25.4024607 55.7758205,26.1807153 55.2043894,26.8065236 L55.2050807,26.8065236 Z" id="Shape"></path>
                <path d="M63.1530418,42.0387983 C63.1353732,42.8634246 62.4573941,43.5227559 61.6271134,43.5227559 C60.7968328,43.5227559 60.1188536,42.8634246 60.1011851,42.0387983 C60.1011851,41.2202575 60.7806811,40.5630901 61.6316065,40.5630901 C62.4825319,40.5630901 63.1530418,41.2223176 63.1530418,42.0387983 Z M60.4813711,42.0387983 C60.4813711,42.695279 60.9707741,43.2171674 61.6405927,43.2171674 C62.2924389,43.2171674 62.7728558,42.695279 62.7728558,42.0497854 C62.7728558,41.4042918 62.2931302,40.8624893 61.6316065,40.8624893 C60.9700829,40.8624893 60.4820623,41.3912446 60.4820623,42.0387983 L60.4813711,42.0387983 Z M61.3958912,42.8127039 L61.0502676,42.8127039 L61.0502676,41.3369957 C61.2385092,41.3042135 61.4294597,41.289268 61.6205466,41.2923605 C61.901193,41.2923605 62.0283825,41.3369957 62.1369083,41.4001717 C62.2320357,41.4809267 62.2853778,41.60003 62.2820702,41.7242918 C62.2820702,41.8863519 62.155572,42.0120172 61.9744652,42.0676395 L61.9744652,42.0854936 C62.1189359,42.1397425 62.200503,42.2475536 62.2461254,42.4453219 C62.2917477,42.6698712 62.3152501,42.7598283 62.3546512,42.8140773 L61.9834514,42.8140773 C61.9378291,42.7598283 61.9143267,42.6252361 61.8659394,42.4542489 C61.8389807,42.2921888 61.7484273,42.2200858 61.5576431,42.2200858 L61.3945087,42.2200858 L61.3958912,42.8127039 Z M61.4048774,41.976309 L61.5680118,41.976309 C61.7581048,41.976309 61.9136354,41.913133 61.9136354,41.7606867 C61.9136354,41.6233476 61.8140958,41.5354506 61.5970442,41.5354506 C61.5331954,41.5340074 61.4693963,41.5399996 61.4069512,41.5533047 L61.4048774,41.976309 Z" id="Shape"></path>
            </g>
        </g>
    </g>
</svg>