<?xml version="1.0" encoding="UTF-8"?>
<svg width="119px" height="29px" viewBox="0 0 119 29" version="1.1" xmlns="http://www.w3.org/2000/svg" xmlns:xlink="http://www.w3.org/1999/xlink">
    <title>7FC7F791-0092-482C-B5FA-55535F0BDCA6</title>
    <g id="Home-page-map-update---100121" stroke="none" stroke-width="1" fill="none" fill-rule="evenodd">
        <g id="1200-Home-Page-/-Updated-pharmacies-section" transform="translate(-224.000000, -1161.000000)" fill="#E31836" fill-rule="nonzero">
            <g id="✱-/-Logos-/-Walgreens" transform="translate(224.646859, 1161.000000)">
                <g id="Walgreens_Logo" transform="translate(0.305493, 3.063025)">
                    <path d="M12.8674925,16.7575385 C18.6970768,17.6988396 22.9643728,12.7614138 25.6981093,8.48882182 C26.7921613,6.77697349 28.4537139,2.29520345 26.592775,0.601536364 C24.8887723,-1.03683726 23.5719651,1.11323525 22.561741,1.83092574 L23.3414916,2.63839785 C24.8988488,4.35736874 23.5443082,7.62343217 22.6211282,9.36864402 C21.2357148,11.517217 18.6205381,14.7684731 15.5643532,14.3160038 C14.9010185,14.1799256 14.3517414,13.6176192 14.1197672,13.0264476 C15.7658835,11.6023128 17.7151528,9.10042384 18.8107055,7.43618411 C19.7276682,6.08233756 21.3186853,3.46611297 19.8513735,2.3883589 C18.6334018,1.65042538 16.1942425,2.71299718 14.887083,3.67772765 C14.0914672,4.3037622 13.5552681,4.81639826 12.9378137,5.54589718 C11.2556792,7.53927363 9.65394248,10.9573472 9.82116971,13.5883792 C9.01419109,14.1000781 8.09122541,14.6099027 6.99524384,14.3160038 C5.90891,14.1030771 5.71338277,13.2948553 5.55923357,12.6605736 C4.8671701,8.8483231 9.23801835,4.03441738 11.6900413,1.26861929 C11.6900413,1.26861929 9.7555652,1.7270865 8.34378143,1.77863127 C5.09807232,1.90008945 2.68764181,0.579793857 0.932184646,2.47645358 C0.4039181,3.15140879 0.0988355807,3.86066469 0,4.70393697 C0.719291505,4.16637197 1.78504354,4.29514016 2.80320012,4.34612262 C4.56487472,4.48088873 5.43252679,4.66663731 7.02054233,4.29364068 C5.60575705,6.0381028 3.24871061,9.47773148 2.81542056,11.6240553 C2.58580471,13.0481902 2.60574334,15.2932925 3.99844605,16.3013205 C6.30618189,17.6441084 8.59826696,16.7054315 10.6455142,15.469107 C11.2533209,16.0846451 12.0034851,16.6229598 12.8674925,16.7575385 Z M16.7829681,4.84582563 C17.3969922,4.58304108 17.2128279,5.38020422 17.2128279,5.38020422 C17.1249264,6.28458047 16.3747622,7.36195966 15.8402782,8.18855017 C15.2914298,9.0336968 13.3681022,11.0265109 12.5302509,11.4549885 C12.5664835,10.2490285 14.0430142,7.61612218 14.7976807,6.61165539 C15.1840185,6.02104616 16.1698016,5.10879763 16.7829681,4.84582563 Z" id="path2303"></path>
                    <path d="M110.09938,7.06436414 L110.09938,7.06436414 C109.777159,7.43057251 108.677385,8.46037118 108.320702,8.78187021 C108.304763,8.79467081 108.137191,8.93269462 108.137191,8.93269462 C105.171291,11.4955966 102.904542,12.9826919 101.591965,13.2223785 C100.697241,13.391569 100.286711,13.4364638 99.8679953,12.7411503 C99.8606721,12.7281641 99.8507642,12.703305 99.8507642,12.703305 C99.8507642,12.6981106 99.8076865,12.3779102 99.8076865,12.3779102 C99.8076865,11.45367 101.202112,9.38164308 103.066515,7.9969525 C103.778158,7.46136815 103.86216,7.22427884 103.872068,7.16528478 C103.606278,6.80594051 103.445168,6.63712106 103.083315,6.50707441 C102.56509,6.4836994 101.769876,6.95806352 101.24562,7.27418259 C100.874721,7.49290582 99.8223329,8.32605767 98.7061897,9.20428988 C97.7765729,9.93930382 96.8159402,10.6989914 96.2796229,11.0789279 C96.2796229,11.0789279 95.5322248,11.605422 95.3706834,11.7211839 C95.3775758,11.5857573 95.3969608,11.313791 95.3969608,11.313791 C95.4167765,10.8375718 95.9983255,10.0428217 96.8301559,8.97332261 C97.131269,8.57910135 97.8743593,7.46136813 97.9635302,7.26323717 L97.9751612,7.24357249 L97.9618071,7.22427884 C97.7205719,6.88367166 97.2583482,6.61838396 96.8891723,6.60354269 C96.8512639,6.61597226 96.5587664,6.82245145 96.5587664,6.82245145 C95.9324166,7.26323719 94.594854,8.30064203 93.3033846,9.30725122 C92.1170247,10.2311203 90.9978661,11.1008188 90.7195841,11.2748327 C88.5415756,12.667315 86.6547723,13.5752297 84.7933849,14.1399401 C84.4599635,14.2234222 83.3222814,14.4586564 82.7588251,13.9128686 C82.7588251,13.9128686 82.6308844,13.7900571 82.5641139,13.7195611 C82.6485462,13.6869103 82.832488,13.6193825 82.832488,13.6193825 C84.4599635,13.0227634 86.5100312,12.2024121 87.9970735,11.1045291 C88.0194739,11.0874617 90.2788992,9.41818973 90.2788992,7.77247829 C90.2788992,7.69938503 90.2732991,7.63018761 90.2668375,7.55839296 C90.1264042,6.96771038 89.5388243,6.78664687 88.7031169,6.69370342 C85.967683,6.70910124 83.5101002,8.15927893 82.2337079,9.39500024 L82.0092731,9.60667387 C81.4169547,10.1613664 79.6163069,11.8473347 78.8848475,13.3440769 C78.8848475,13.3440769 78.8534008,13.4108626 78.8426314,13.4227356 C78.8387544,13.4190253 78.7758609,13.4420293 78.7758609,13.4420293 C77.5429771,13.8909777 76.2032607,14.3228587 74.7140646,14.4579143 C73.9102347,14.5439937 72.7712603,14.6029877 72.1332796,14.1009817 C72.1332796,14.1009817 71.9773383,13.9826226 71.9079832,13.9265968 C72.0324778,13.8687158 75.0177624,12.4940431 75.0177624,12.4940431 C77.4783606,11.2076759 79.1269442,9.24918474 79.1269442,8.22903288 L79.1269442,8.22903288 C79.0761125,7.04544152 77.7902432,6.77755659 76.71847,6.76475599 C75.126749,6.7729187 73.6577994,7.27844949 71.8033044,8.4546202 C70.7285158,9.13694763 68.4789983,11.3508942 67.8772028,13.6234638 C67.8772028,13.6234638 67.861264,13.6980412 67.8496331,13.7314341 C67.801386,13.7440492 67.6161519,13.7811523 67.6161519,13.7811523 C66.4379768,14.0334539 64.4585565,14.4460413 64.0936884,13.4561285 C63.5074009,11.8473347 65.3786962,10.2977205 66.8786617,9.05494962 C66.8786617,9.05327997 67.7234154,8.34052793 67.7234154,8.34052793 C67.8410175,8.22643567 67.984897,7.96096243 67.9448348,7.751515 C67.9293268,7.65189297 67.8720335,7.57768661 67.7677854,7.52444356 C66.9648171,7.22001198 66.1945878,7.45468959 65.3786962,7.70587809 C64.7669928,7.89195053 64.1328891,8.08247534 63.4617385,8.04166184 C63.4617385,8.04166184 63.3307823,8.02811917 63.2515193,8.02348129 C63.2592733,7.9628176 63.2709043,7.83833643 63.2709043,7.83833643 C63.3049357,7.49865685 63.5345398,7.29533144 63.7400204,7.11667964 C63.7443282,7.11519551 63.8067909,7.05638698 63.8067909,7.05638698 C63.8421146,7.01946932 63.8623611,6.94878775 63.8623611,6.86771731 C63.8623611,6.79666473 63.8485762,6.71652187 63.8106679,6.64658238 C63.7576823,6.53916867 63.677127,6.47405261 63.5780483,6.46755955 C63.1085013,6.41709923 62.2969175,6.81688596 61.559858,7.45747232 C60.8516606,8.07839399 60.406668,8.74866288 60.406668,9.20892781 L60.4135604,9.30391194 C60.4174374,9.31597048 60.4157143,9.34101512 60.4157143,9.34101512 C60.3291281,10.3843565 59.2737245,11.3842871 57.8090827,12.7708328 L57.1730404,13.3752436 C57.176702,13.3752436 56.9285745,13.5926682 56.9285745,13.5926682 C56.0506509,14.3644143 55.495164,14.9428528 55.3237148,15.2623112 L55.2722369,15.3550691 L55.3924237,15.3276128 C56.0142503,15.166585 57.8034826,14.4215532 61.0080327,10.9479537 C61.0080327,10.9479537 61.0558489,10.8986065 61.0760955,10.8679964 C61.1178808,10.8722632 61.1945592,10.8826521 61.1945592,10.8826521 C61.3444696,10.8986065 61.5284113,10.8318208 61.722261,10.7667047 C62.0483592,10.6548386 62.4218428,10.5299864 62.7742184,10.7303436 C62.7742184,10.7303436 62.9094824,10.804921 62.9672065,10.8410966 C62.9056054,10.9060271 62.3382721,11.5301026 62.3382721,11.5301026 C61.4444098,12.4951562 60.526424,13.485811 60.526424,14.6745968 C60.526424,14.9016683 60.5595938,15.1369024 60.6371337,15.3806703 C60.8077214,16.0770969 61.6348132,16.4065731 62.2926097,16.4800374 C63.6237107,16.6781684 65.2929715,16.0437041 66.7666597,15.4871564 L67.5127654,15.2055433 C67.9293268,15.108333 68.0477905,15.3276128 68.1360998,15.4841882 C68.2394862,15.6748985 68.3859504,15.9427834 69.0278082,16.183212 C71.1786777,17.0217438 74.3354116,16.6076724 78.4131467,14.9521286 C78.4131467,14.9521286 78.5354874,14.9016683 78.6117349,14.8708726 C78.6410277,14.933206 78.6948748,15.0556465 78.6948748,15.0556465 C78.9886648,15.7357477 79.5413516,16.1561267 80.4429679,16.380972 C83.9550928,16.7835414 86.8512066,15.0526782 89.6503955,13.380438 C89.6538418,13.3789539 90.9276494,12.5433903 91.1374378,12.4057375 C91.189131,12.4498903 91.417012,12.6636046 91.4488895,12.6981106 C91.4032272,12.7563626 90.2181596,14.1911424 90.2181596,14.1911424 C89.8046137,14.7128131 89.4182068,15.2033171 89.1756793,15.7535572 C89.1756793,15.7491048 89.1054626,15.984339 89.1054626,15.984339 L89.1360478,16.1056664 C89.1972182,16.1995374 89.3466978,16.2637259 89.5663941,16.2915533 C91.6983094,16.0373965 93.7522542,14.5387992 95.1070478,13.5511126 L95.5132706,13.2550293 C96.0956811,12.8172118 96.6535373,12.4072217 96.8745259,12.3652951 C96.8745259,12.3652951 96.959389,12.3445173 97.0024667,12.3344994 C97.0339134,12.3652951 97.100253,12.4313387 97.100253,12.4313387 C97.1075762,12.4380173 97.1075762,12.4491482 97.1075762,12.4587951 C97.1075762,12.5493268 96.9512042,12.761557 96.8374791,12.9099697 L96.6238137,13.2067951 C96.4420258,13.5347872 96.0797423,14.1781563 96.0797423,14.7480611 C96.0797423,14.9550969 96.1288509,15.1565671 96.2615302,15.3283548 C96.8995109,16.1791307 97.4560748,16.2054739 98.056578,16.2347854 L98.2711049,16.2448033 C100.785981,16.1056664 103.255195,14.2256484 105.646869,12.4057375 L107.426409,11.0789279 C107.426409,11.0789279 108.864773,9.99495859 109.15684,9.77104093 C109.196902,9.84821554 109.257211,9.99495859 109.257211,9.99495859 C109.436845,10.391035 109.475184,10.7522344 109.475184,10.9843148 L109.430383,11.4154537 C109.403675,11.605422 109.006499,12.9407654 108.462427,13.3195888 C108.460704,13.3195888 108.348702,13.3737594 108.348702,13.3737594 C108.344825,13.3737594 108.002357,13.4479658 108.002357,13.4479658 C106.687195,13.7384837 105.197138,14.0642496 104.642297,15.1947834 C104.640143,15.1992358 104.592757,15.4522794 104.592757,15.4522794 C104.592757,15.6044025 104.659528,15.8225692 104.957195,15.9932438 C105.885519,16.1995374 106.847444,16.0014065 107.695644,15.8262795 L108.785941,15.6251802 C109.675926,15.6296326 110.540926,15.7205354 111.377064,15.8066148 C112.541885,15.926458 113.637782,16.0414779 114.801742,15.9383311 C116.30903,15.5999501 117.509175,14.127696 117.880936,12.9099697 L117.914105,12.8094201 L117.802534,12.8580253 C115.932962,13.6542595 113.774769,13.6883944 112.024953,12.9507832 C112.024953,12.9507832 111.903474,12.8984678 111.847473,12.8728665 C111.871166,12.8227773 111.925444,12.7073864 111.925444,12.7073864 C111.939228,12.6836403 113.004971,10.4403822 113.004971,7.53390485 C113.004971,7.40181754 113.003248,7.267133 112.99894,7.13263399 L113.004971,7.13263399 C112.983001,7.06232346 112.973524,6.99646532 112.973524,6.93153476 C112.973524,6.66402085 113.130758,6.44437005 113.274637,6.24512597 C113.418947,6.04643846 113.543442,5.8729811 113.543442,5.66687295 C113.543442,5.63570629 113.540427,5.60713684 113.539134,5.57355847 C113.531811,5.57059022 113.531811,5.562242 113.531811,5.55593447 C113.531811,5.53144636 113.540427,5.49805351 113.540427,5.49805351 C113.543442,5.49434318 113.543442,5.49007633 113.543442,5.48580947 C113.543442,5.41382929 113.412486,5.37746819 113.349162,5.36225589 C111.886243,5.04446717 111.055274,5.97983829 110.09938,7.06436414 Z M71.5732696,12.0803427 L71.5732696,12.0803427 C71.667179,11.3931918 72.860862,10.0621154 73.4979812,9.50612423 C74.0773763,9.00300515 74.8316668,8.59505572 75.5588184,8.38801998 C75.9443638,8.30917572 76.2528002,8.37317871 76.4143415,8.56555868 C76.477235,8.64662912 76.5116972,8.74031465 76.5116972,8.84049322 C76.5116972,8.96423232 76.4604347,9.09576308 76.3665253,9.22543869 C75.5691571,10.302915 73.51392,11.8213625 71.8373359,12.2781026 C71.8373359,12.2781026 71.6426247,12.3315312 71.5310535,12.3652951 C71.5444075,12.2732792 71.5732696,12.0803427 71.5732696,12.0803427 Z M82.8432575,11.8198784 L82.8432575,11.8198784 C83.0125528,10.7924914 84.7511688,9.26458256 84.7679691,9.24918474 C85.3473642,8.74736426 86.1020855,8.34052793 86.8326833,8.12978189 C87.1325041,8.01847236 87.4219862,8.04203287 87.5994663,8.18970352 C87.6670983,8.25110928 87.7601462,8.36353191 87.7601462,8.5514595 C87.7601462,8.65720356 87.7304225,8.78335436 87.6554673,8.942527 C87.4702332,9.34101514 86.0684849,10.5110638 85.6708777,10.8095589 C85.2267466,11.172799 84.0123862,11.8985371 83.0819079,12.0295113 C83.0819079,12.0295113 82.9070124,12.0539995 82.7993182,12.0669856 C82.8135339,11.9883268 82.8432575,11.8198784 82.8432575,11.8198784 Z" id="path2305"></path>
                    <path d="M48.790342,2.47468763 L48.7873244,2.47468763 C46.8935677,2.6237894 45.1116775,3.52837712 43.0077667,5.40388162 C42.1483986,6.10098323 38.1750874,10.3379125 37.5202691,13.5597672 C37.5202691,13.5597672 37.5090609,13.6214772 37.5023791,13.6477132 C37.4743586,13.6595379 37.4120668,13.6883606 37.4120668,13.6883606 C36.8361371,13.9536767 35.102744,14.5922093 34.0047703,14.3546072 C33.6756368,14.2840286 33.4297028,14.1384373 33.281625,13.922637 C33.1124241,13.6418009 33.0311646,13.3557916 33.0311646,13.0535233 C33.0311646,12.3506941 33.4844506,11.7232472 33.8758758,11.1615751 C33.8797556,11.160097 34.0866764,10.8642953 34.1009023,10.8439717 C34.1077996,10.8500688 34.1759111,10.8315927 34.1759111,10.8315927 C35.1921942,10.5827203 36.7846224,8.91969041 37.1898424,7.90517017 L37.2016973,7.87616277 L37.1713058,7.85861052 C35.9853907,7.23633694 34.393609,7.25037873 33.271279,7.36991883 C31.4199841,7.55430988 29.3128402,8.25344385 27.6309618,9.2365548 C25.608095,10.4212395 23.860045,12.8325497 23.4942693,14.3413044 C23.2968323,15.2041363 23.1664291,16.0791623 23.862847,16.4848965 C25.3097841,17.2058322 28.1536524,15.8969884 30.0954752,14.3039828 C30.0954752,14.3039828 30.3493843,14.0966814 30.5002641,13.9721528 C30.4853917,14.1484144 30.4373257,14.62251 30.4373257,14.62251 C30.4127538,14.8287028 30.3903374,15.0644573 30.3903374,15.2979946 C30.3903374,15.7380943 30.4763389,16.1807806 30.8153873,16.4545957 C32.4162218,17.543205 35.7122983,16.3503908 37.5319085,15.2843223 C37.5319085,15.2843223 37.6379554,15.2203952 37.6935654,15.1900944 C37.7379671,15.2355455 37.8172868,15.323122 37.8172868,15.323122 C38.3960185,15.9361576 39.0788573,16.5957528 39.8558882,16.7080872 C41.8875922,16.9516017 43.4774339,15.9479823 44.8918241,14.8275942 C44.8918241,14.8275942 45.076113,14.6823724 45.1683652,14.6069901 C45.1968168,14.7348444 45.3058814,15.1675537 45.3058814,15.1675537 C45.4095573,15.6157828 45.5039649,16.039993 45.909616,16.319351 C46.9358141,17.0000089 49.2345753,16.0743585 50.5280461,15.2865394 C50.5280461,15.2865394 50.826788,15.1073217 50.9985754,14.999791 C50.9552514,15.1553594 50.8561018,15.4779514 50.8561018,15.4779514 C50.6349552,16.2107118 50.226071,16.9128019 49.8292571,17.5912427 L49.4744741,18.2120382 L49.4154155,18.2940719 L49.3100151,18.4404023 C48.7586573,19.1964425 47.7372012,20.6139256 46.7418258,20.7380847 L46.6728521,20.7469532 C46.4163565,20.6663976 46.2534064,20.543347 46.1671893,20.3800187 L46.0936893,20.0626001 C46.0936893,19.6805152 46.3281996,19.2452193 46.5336117,18.8609174 L46.5767202,18.784796 L46.4805882,18.7907083 C46.0180339,18.8513098 45.6050544,19.0190724 45.1511218,19.2171357 C44.2307551,19.6845799 43.2832301,20.7403018 43.2832301,21.6892321 C43.2832301,21.8865564 43.3207345,22.072056 43.4000542,22.2446223 C43.5903783,22.6063835 44.0910836,22.6182082 44.3005909,22.6086006 C50.6082279,22.1030957 54.1461432,15.9708926 56.7309293,11.491188 L57.2383165,10.6072934 C57.3943693,10.4306623 57.4198033,10.323686 57.4198033,10.2617912 L57.4150614,10.2085801 C57.4049309,10.2026678 57.3191449,10.1078856 57.3191449,10.1078856 C57.3258267,10.1143522 57.2551288,9.78621747 57.2551288,9.78621747 C57.3607446,9.35313871 58.5830864,8.44263865 58.5958034,8.43192254 C58.5958034,8.43432443 58.7512096,8.33270611 58.7512096,8.33270611 C58.8762243,8.26305137 58.9540351,8.19136428 58.9570527,8.13334947 C58.9570527,8.07108515 58.8751465,7.98849719 58.7512096,7.92105959 C58.5031201,7.78470629 58.2343386,7.68659843 57.2092182,7.44197544 C55.3143838,6.98691017 52.0549494,7.32964101 49.0983524,9.78270702 C48.7886178,10.0376766 48.2169989,10.6553312 47.7512115,11.1512285 L47.1532965,11.789761 C45.7123946,13.2308934 44.2277376,14.7252369 41.7729236,14.307678 C41.4502564,14.1938655 41.1105613,13.9625453 40.9799425,13.678014 C40.9094601,13.5150552 40.9144176,13.3513573 40.994815,13.2035489 L41.0252065,13.1510769 C42.3861421,12.3325876 43.7850132,11.2702143 45.2216042,9.98132461 C47.6339564,7.77121875 50.5881824,4.05328191 50.2004214,3.12984861 C49.9118099,2.48651231 49.0507174,2.46397153 48.790342,2.47468763 Z M28.8502859,9.7363321 C30.1875119,9.17539902 31.8583977,9.21586158 33.1042335,9.83979801 C33.1042335,9.83979801 33.2473538,9.91037655 33.3191294,9.9480677 C33.260933,10.018831 32.4015648,11.0448064 32.4015648,11.0448064 C30.9869591,12.5184567 28.2575439,13.9780651 27.0916743,13.8871629 L27.0916743,13.8849458 C26.5478605,13.844668 26.1676434,13.6159344 26.0728047,13.268215 L26.053837,12.9751848 C26.053837,11.9782168 27.6003547,10.4373137 28.4110102,9.96598948 C28.402173,9.97097802 28.8502859,9.7363321 28.8502859,9.7363321 Z M44.673264,6.16915988 C45.322047,5.48720864 46.3861805,4.88525873 46.7043213,4.75758917 C46.9491776,4.65818799 47.080012,4.77680427 47.1147143,4.81357162 C47.1683844,4.8699236 47.1862745,4.94696874 47.1862745,5.02382913 C47.1862745,5.11436181 47.1545897,5.20378593 47.1177319,5.24258564 L47.1295868,5.24424849 C46.5622788,6.94053523 42.9758664,10.539671 40.9126932,11.8008466 C40.9126932,11.8008466 40.6654659,11.9497636 40.5178193,12.0406658 C40.5389424,11.9057906 40.5809732,11.6338231 40.5809732,11.6338231 L40.5809732,11.6338231 C40.7564249,10.4269671 43.4244105,7.48428558 44.673264,6.16915988 Z M48.7067115,13.8697954 L48.6720092,13.8509498 C48.1150472,13.5058171 47.9393801,13.0187883 48.1700106,12.4464 C48.3786558,11.7808925 50.5347278,9.7381797 52.240316,9.45364842 C53.7883425,9.19627695 54.4069496,9.64579941 54.705476,9.85956738 C54.705476,9.86344735 54.8677796,9.9728256 54.9458059,10.0301014 C54.8800655,10.0903333 54.1077765,10.8001834 54.1077765,10.8001834 C52.9699275,12.1759106 50.1226105,14.4347932 48.7067115,13.8697954 Z" id="path2307"></path>
                </g>
            </g>
        </g>
    </g>
</svg>