<?xml version="1.0" encoding="UTF-8"?>
<svg width="76px" height="35px" viewBox="0 0 76 35" version="1.1" xmlns="http://www.w3.org/2000/svg" xmlns:xlink="http://www.w3.org/1999/xlink">
    <title>81E96BD2-EF1F-4F0F-972B-058940960736</title>
    <defs>
        <polygon id="path-1" points="-4.55387976e-16 -9.22039212e-16 76 -9.22039212e-16 76 35 -4.55387976e-16 35"></polygon>
        <polygon id="path-3" points="-4.55387976e-16 -9.22039212e-16 76 -9.22039212e-16 76 35 -4.55387976e-16 35"></polygon>
    </defs>
    <g id="Scriptcycle" stroke="none" stroke-width="1" fill="none" fill-rule="evenodd">
        <g id="1200-Homepage-/-Test-1" transform="translate(-552.000000, -568.000000)">
            <g id="Group-27" transform="translate(102.000000, 563.000000)">
                <g id="rite-aid-logo" transform="translate(450.000000, 5.000000)">
                    <g id="Group-4">
                        <g id="Fill-1-Clipped">
                            <mask id="mask-2" fill="white">
                                <use xlink:href="#path-1"></use>
                            </mask>
                            <g id="path-1"></g>
                            <path d="M41.6289662,10.1556197 C43.5738055,9.31325635 44.6008488,7.75844341 44.6008488,5.49118089 C44.6008488,2.12251839 42.3064586,0.00612987424 38.1984857,0.00612987424 L34.4838825,0.00612987424 L34.4838825,14.6903425 L36.7998821,14.6903425 L36.7998821,10.9113739 L38.1984857,10.9113739 C38.6136648,10.9113739 39.028844,10.868267 39.4440232,10.8249624 L42.1097737,14.6903425 L44.7757243,14.6903425 L41.6289662,10.1556197 Z M36.7998821,8.94625484 L36.7998821,2.01455351 L38.1110479,2.01455351 C41.0173022,2.01455351 42.2408303,3.28857866 42.2408303,5.49118089 C42.2408303,7.67222969 41.0611211,8.94625484 38.1110479,8.94625484 L36.7998821,8.94625484 Z M47.7908255,14.6903425 L50.0852157,14.6903425 L50.0852157,0.00612987424 L47.7908255,0.00612987424 L47.7908255,14.6903425 Z M57.0552238,14.6903425 L59.349614,14.6903425 L59.349614,2.01455351 L63.7633189,2.01455351 L63.7633189,0.00612987424 L52.641519,0.00612987424 L52.641519,2.01455351 L57.0552238,2.01455351 L57.0552238,14.6903425 Z M66.2545941,14.6903425 L76,14.6903425 L76,12.6821166 L68.5705936,12.6821166 L68.5705936,9.68045559 L74.885519,9.68045559 L74.885519,7.71533655 L68.5705936,7.71533655 L68.5705936,2.01455351 L75.694068,2.01455351 L75.694068,0.00612987424 L66.2545941,0.00612987424 L66.2545941,14.6903425 L66.2545941,14.6903425 Z" id="Fill-1" fill="#FFFFFF" fill-rule="nonzero" mask="url(#mask-2)"></path>
                        </g>
                        <g id="Fill-3-Clipped">
                            <mask id="mask-4" fill="white">
                                <use xlink:href="#path-3"></use>
                            </mask>
                            <g id="path-1"></g>
                            <path d="M28.9364884,0 C28.9399706,1.38585806 28.9493806,5.94800992 28.9577097,10.6885356 L28.959257,11.5787425 C28.9630851,13.8058262 28.9665794,16.0309331 28.969018,17.9452871 L28.9699355,18.6937232 C28.9703644,19.0589227 28.9707471,19.4100452 28.9710781,19.7446206 L28.9719096,20.6962351 L28.9719096,20.6962351 C28.9729041,21.9200348 28.715393,23.1363205 28.1725587,24.2385114 C26.1426826,28.3593688 21.2953906,32.7238393 14.4812498,34.9996045 C14.4812498,35 14.4804495,35 14.4800493,35 L14.4796491,35 C14.4792489,35 14.4786487,35 14.4786487,34.9996045 C7.66430775,32.7238393 2.81721585,28.3593688 0.787339799,24.2385114 C0.244505523,23.1363205 -0.013005613,21.9200348 -0.0120109715,20.6962351 L-0.0111795375,19.7446206 C-0.011069237,19.6330954 -0.0109531784,19.5197317 -0.0108315767,19.404621 L-0.0100371698,18.6937232 C-0.00760763139,16.6242598 -0.00370040218,14.1027706 0.00062835819,11.5787425 L0.00217193921,10.6885356 C0.00970055423,6.3924342 0.0180942558,2.24282928 0.0221100808,0.471052305 L0.0228767547,0.139138253 C0.0229935493,0.0897179784 0.0231047083,0.0433080645 0.023210017,0 L28.9364884,0 Z M20.3167683,28.461797 L8.64313019,28.461797 C9.45287966,29.0648976 10.3508672,29.6460492 11.3394939,30.1862691 L17.6206047,30.1862691 C18.6092314,29.6460492 19.5070188,29.0648976 20.3167683,28.461797 Z M25.7577165,16.361623 L3.20238208,16.361623 C3.19998104,18.0018587 3.19818027,19.5007119 3.19737665,20.6984102 C3.19677966,21.4731472 3.36125065,22.2172348 3.67298518,22.849996 C4.32306574,24.1696986 5.45015217,25.6924781 7.06925094,27.1678004 L21.8906475,27.1678004 C23.5097463,25.6924781 24.6370328,24.1696986 25.2869133,22.849996 C25.5986478,22.2172348 25.7631188,21.4731472 25.7625218,20.6984102 C25.7617182,19.4941865 25.7599174,17.9957289 25.7577165,16.361623 Z M22.82325,5.78225105 C22.1411557,5.80716602 21.483872,8.41295579 20.8950178,9.10622479 C20.3627882,9.7332516 16.0505271,12.9403623 15.0304868,14.2574943 L20.8343917,14.2574943 C21.7447846,12.696156 22.6111585,11.1144507 22.9026843,10.77098 C23.4913384,10.0775132 25.9736097,8.98560468 25.8801693,8.31725065 C25.8327489,7.97852567 25.1992755,7.33073638 24.5856106,6.77430199 C23.9245253,6.27382741 23.1689993,5.76959582 22.82325,5.78225105 Z M10.5177392,9.84793957 C9.1209364,11.2285454 9.71639339,13.5634343 9.71639339,13.5634343 C9.71639339,13.5634343 12.079013,14.1521 13.476016,12.7714941 C14.8578123,11.4059163 14.2975705,9.0358301 14.2975705,9.0358301 C14.2975705,9.0358301 11.8995356,8.48236178 10.5177392,9.84793957 Z M3.13075117,9.0358301 C3.13075117,9.0358301 2.57070946,11.4059163 3.9527059,12.7714941 C5.34970882,14.1521 7.71212839,13.5634343 7.71212839,13.5634343 C7.71212839,13.5634343 8.30778547,11.2285454 6.91098263,9.84793957 C5.52898619,8.48236178 3.13075117,9.0358301 3.13075117,9.0358301 Z M8.71436093,2.78276517 C8.71436093,2.78276517 6.62245811,4.01744048 6.62245811,5.96990429 C6.62245811,7.68662062 8.2753196,8.89212837 8.64262215,9.13882496 L8.70596484,9.18026484 C8.71149138,9.18375594 8.71436093,9.18551768 8.71436093,9.18551768 C8.71436093,9.18551768 10.8060637,7.90121016 10.8060637,5.96990429 C10.8060637,4.01744048 8.71436093,2.78276517 8.71436093,2.78276517 Z" id="Combined-Shape" fill="#FFFFFF" fill-rule="nonzero" mask="url(#mask-4)"></path>
                        </g>
                    </g>
                    <path d="M32.9266104,32.4665823 L35.1553723,32.4665823 L36.0075401,30.3936961 L42.803273,30.3936961 L43.6554408,32.4665823 L46.058878,32.4665823 L39.5474679,17.631298 L39.2853547,17.631298 L32.9266104,32.4665823 Z M36.7940796,28.4718817 L38.6514812,23.8938543 C39.0230415,23.0297398 39.3727925,21.7126078 39.3727925,21.7126078 C39.3727925,21.7126078 39.7441527,23.0297398 40.115513,23.8938543 L41.9729146,28.4718817 L36.7940796,28.4718817 Z M53.5781232,32.4665823 L57.6642867,32.4665823 C62.4495519,32.4665823 65.5961099,29.5297793 65.5961099,25.1245749 C65.5961099,20.7193704 62.4277425,17.7825674 57.6642867,17.7825674 L53.5781232,17.7825674 L53.5781232,32.4665823 Z M55.8943228,30.4583564 L55.8943228,19.7909911 L57.5112206,19.7909911 C61.3788898,19.7909911 63.1924725,21.9933956 63.1924725,25.1245749 C63.1924725,28.2557542 61.3788898,30.4583564 57.5112206,30.4583564 L55.8943228,30.4583564 L55.8943228,30.4583564 Z" id="Fill-9" fill="#FFFFFF" fill-rule="nonzero"></path>
                    <polygon id="Fill-10" fill="#FFFFFF" fill-rule="nonzero" points="47.7908255 32.4665823 50.0852157 32.4665823 50.0852157 17.7825674 47.7908255 17.7825674"></polygon>
                    <polyline id="Fill-11" fill="#FFFFFF" fill-rule="nonzero" points="23.4683284 31.342047 23.0821618 31.342047 23.0821618 31.166258 24.0549816 31.166258 24.0549816 31.342047 23.669015 31.342047 23.669015 32.4507633 23.4683284 32.4507633 23.4683284 31.342047"></polyline>
                    <path d="M24.2540675,31.1532073 L24.2750766,31.1532073 L24.8963447,31.8707981 L25.5118104,31.1532073 L25.5328194,31.1532073 L25.5328194,32.4507633 L25.3397361,32.4507633 L25.3397361,31.7839911 C25.3397361,31.71241 25.3473394,31.5989085 25.3473394,31.5989085 C25.3473394,31.5989085 25.2843122,31.6954046 25.230689,31.753935 L24.903948,32.1428854 L24.8809381,32.1428854 L24.5541971,31.753935 C24.5045757,31.6954046 24.4393475,31.5989085 24.4393475,31.5989085 C24.4393475,31.5989085 24.4471509,31.71241 24.4471509,31.7839911 L24.4471509,32.4507633 L24.2540675,32.4507633 L24.2540675,31.1532073" id="Fill-12" fill="#FFFFFF" fill-rule="nonzero"></path>
                </g>
            </g>
        </g>
    </g>
</svg>