<?xml version="1.0" encoding="UTF-8"?>
<svg width="100px" height="18px" viewBox="0 0 100 18" version="1.1" xmlns="http://www.w3.org/2000/svg" xmlns:xlink="http://www.w3.org/1999/xlink">
    <title>46431369-F51A-4A9B-8A37-1EEC4C2AC692</title>
    <g id="Scriptcycle" stroke="none" stroke-width="1" fill="none" fill-rule="evenodd">
        <g id="1200-Homepage-/-Test-1" transform="translate(-880.000000, -575.000000)">
            <g id="Group-27" transform="translate(102.000000, 563.000000)">
                <g id="safeway-logo-white" transform="translate(778.000000, 12.000000)">
                    <path d="M5.28479978,8.13802806 L4.33624597,7.60239458 C3.19143965,6.97223754 2.57464604,6.48161527 2.57464604,5.72992794 C2.57464604,4.89722043 3.29423859,4.37959143 4.44371758,4.37959143 C5.21938227,4.37959143 6.18195411,4.69466995 7.47628615,5.35633484 L7.63982991,5.44185615 L7.63982991,3.25881212 C7.63982991,3.25881212 7.61646652,3.25881212 7.61646652,3.25881212 C6.57853769,2.75570828 5.4327544,2.49365283 4.27082847,2.49362143 C1.86907154,2.47561694 0.210270548,3.83045458 0.210270548,5.84245599 C0.210270548,7.50787102 1.33171347,8.48011331 3.01387786,9.44335336 L3.99981309,9.98798908 C5.40161675,10.7711843 5.8969207,11.3383256 5.8969207,12.1980398 C5.8969207,13.1837855 4.96238494,13.8724571 3.64936218,13.8724571 C2.59333676,13.8724571 1.44853044,13.4763584 0.0467267885,12.6166442 L0,12.5851363 L0,15.08776 C0,15.08776 0.177561796,15.1867847 0.177561796,15.1867847 C1.30062247,15.6867266 2.52434999,15.9418512 3.76150647,15.9339709 C6.51838699,15.9339709 8.36876781,14.4125917 8.36876781,12.1485275 C8.36876781,10.5101192 7.50432223,9.38483877 5.2801271,8.13802806" id="Path" fill="#FFFFFF" fill-rule="nonzero"></path>
                    <polygon id="Path" fill="#FFFFFF" fill-rule="nonzero" points="22.1438251 2.77269098 22.1438251 15.641398 24.5315639 15.641398 24.5315639 9.99699133 29.797673 9.99699133 29.797673 7.98498992 24.5315639 7.98498992 24.5315639 4.81169911 30.0686884 4.81169911 30.0686884 2.77269098"></polygon>
                    <polygon id="Path" fill="#FFFFFF" fill-rule="nonzero" points="33.9516845 9.90696889 39.0121957 9.90696889 39.0121957 7.89496749 33.9516845 7.89496749 33.9516845 4.81169911 39.4420821 4.81169911 39.4420821 2.77269098 31.6106724 2.77269098 31.6106724 15.641398 39.5355357 15.641398 39.5355357 13.5798842 33.9516845 13.5798842"></polygon>
                    <path d="M76.7861315,2.7771921 L73.926452,2.7771921 C73.926452,2.7771921 72.6227746,4.73067892 70.8985561,7.33682839 C70.7900201,7.49194056 70.6961885,7.65614296 70.6181954,7.82745066 C70.6181954,7.82745066 70.5901593,7.82745066 70.5854867,7.82745066 C70.5029415,7.65802088 70.406045,7.49543046 70.2957806,7.34132952 C68.426709,4.55063405 67.263212,2.7771921 67.263212,2.7771921 L64.3988599,2.7771921 C64.3988599,2.7771921 69.3799355,9.77643636 69.3892809,9.79444085 L69.3892809,15.6458991 L71.8050558,15.6458991 L71.8050558,9.79444085 C72.0713985,9.42984999 76.7861315,2.79519658 76.7861315,2.79519658" id="Path" fill="#FFFFFF" fill-rule="nonzero"></path>
                    <path d="M61.268165,2.3630889 L61.0392038,2.3630889 L54.721742,15.641398 L57.296388,15.641398 L58.2916686,13.3908371 L64.0157002,13.3908371 L65.0109808,15.641398 L67.5902995,15.641398 L61.268165,2.3630889 L61.268165,2.3630889 Z M59.1187328,11.5318738 C59.1187328,11.5318738 60.2401757,8.95273109 60.9550956,7.36383512 C61.0373272,7.15974855 61.0998935,6.94880726 61.1420027,6.73367808 L61.1700388,6.73367808 C61.2175996,6.94706312 61.2784547,7.15749619 61.3522733,7.36383512 L63.188636,11.5318738 L59.1187328,11.5318738 Z" id="Shape" fill="#FFFFFF" fill-rule="nonzero"></path>
                    <path d="M48.6799682,8.42159873 C48.7617808,8.21275154 48.824325,7.99736472 48.8668754,7.77793832 L48.8995841,7.77793832 C48.9446077,7.99777968 49.0102958,8.2132206 49.0958366,8.42159873 C49.5303958,9.47936233 52.2872763,16.0735056 52.2872763,16.0735056 L52.5068922,16.0735056 L57.3244241,2.7771921 L54.8058502,2.7771921 C54.8058502,2.7771921 53.0021962,8.20554489 52.4274567,9.94297787 C52.3553502,10.1490949 52.2975926,10.3596143 52.2545675,10.5731349 L52.2312041,10.5731349 C52.1828101,10.3590034 52.1187912,10.1484281 52.0396243,9.94297787 C51.5723564,8.80419407 48.9836924,2.29107095 48.9836924,2.29107095 L48.7734218,2.29107095 L45.7361806,9.92497338 C45.6574168,10.1378392 45.5949472,10.3559771 45.5492734,10.577636 L45.5212373,10.577636 C45.5212373,10.4921147 45.409093,10.1275239 45.3436755,9.94747899 C44.7502453,8.1470303 42.9559366,2.78169322 42.9559366,2.78169322 L40.4373627,2.78169322 L45.250222,16.0915101 L45.4745105,16.0915101 L48.6752955,8.43960321" id="Path" fill="#FFFFFF" fill-rule="nonzero"></path>
                    <path d="M14.9525723,2.3630889 L14.723611,2.3630889 L8.41082192,15.641398 L10.9807953,15.641398 L11.9807486,13.3908371 L17.7094528,13.3908371 L18.7140788,15.641398 L21.2887248,15.641398 L14.9525723,2.3630889 L14.9525723,2.3630889 Z M12.8265034,11.536375 C12.8265034,11.536375 13.9432737,8.95723221 14.6535209,7.36833625 C14.7360094,7.16396052 14.8001053,6.95313194 14.8451007,6.73817921 L14.8684641,6.73817921 C14.9153621,6.95219057 14.9778184,7.16276183 15.0553712,7.36833625 L16.891734,11.536375 L12.8265034,11.536375 Z" id="Shape" fill="#FFFFFF" fill-rule="nonzero"></path>
                    <path d="M90.2527919,14.7366725 C90.2527919,11.167283 84.7343582,10.8342 84.7343582,5.77944028 C84.7343582,2.13353169 87.6921639,0.319579642 90.6312789,0.0225056086 C90.3602635,0.0225056086 90.0799028,0 89.6967431,0 C88.986496,0 88.6313724,0.031507852 88.0332695,0.0540134606 C82.5335265,0.31507852 79.6224475,3.13278071 79.4215224,7.47186205 C79.4215224,7.75543271 79.3747956,8.23255162 79.3747956,9.00674455 C79.3747956,9.78093749 79.4028316,10.2490541 79.4215224,10.5281237 C79.5990842,14.7501759 82.3793281,17.5318691 87.5940377,17.9189655 C88.4397925,17.7659274 90.2714826,17.158276 90.2714826,14.7366725" id="Path" fill="#FFFFFF" fill-rule="nonzero"></path>
                    <path d="M99.9579459,7.46736092 C99.7850568,3.3578368 97.1543386,0.612152553 92.1919536,0.117029165 C91.31349,0.28807179 89.5845989,0.922729951 89.5845989,3.26781436 C89.5845989,6.83270276 95.1030326,7.16128465 95.1030326,12.2205455 C95.1030326,15.3713307 92.6124947,17.6939095 88.8650063,17.9639768 L89.6873978,17.9639768 C90.4023176,17.9639768 90.7480959,17.9639768 91.3508715,17.9144644 C96.8459418,17.6579005 99.7616934,14.8401983 99.9626186,10.501117 C99.9626186,10.2220474 100,9.73592627 100,8.97973782 C100,8.22354937 99.9719639,7.72842598 99.9626186,7.44035419" id="Path" fill="#FFFFFF" fill-rule="nonzero"></path>
                    <path d="M95.0983599,12.2430511 C95.0983599,7.18379026 89.5799262,6.84170501 89.5799262,3.28581885 C89.5799262,0.922729951 91.31349,0.283570668 92.187281,0.135033651 C91.9069202,0.108026921 91.6312322,0.0855213126 91.3461988,0.0675168257 L90.6499696,0.0225056086 C87.7108546,0.319579642 84.7530489,2.12903057 84.7530489,5.77944028 C84.7530489,10.8342 90.2714826,11.1807863 90.2714826,14.7366725 C90.2714826,17.1627771 88.4444652,17.7659274 87.5987103,17.9189655 L88.0379422,17.9459723 L88.8790243,17.9864824 C92.6171674,17.7164151 95.1170506,15.4028385 95.1170506,12.2430511" id="Path"></path>
                    <path d="M98.4767067,17.2888085 C98.4767067,16.8966238 98.8063105,16.5784692 99.2134424,16.5776439 C99.6205738,16.5768249 99.9515513,16.8936455 99.9532799,17.2858267 C99.954982,17.6780079 99.6267871,17.9975035 99.2196626,17.9999857 C99.0230494,18.0011845 98.8340615,17.9267866 98.6945942,17.7932849 C98.5551269,17.6597831 98.4767067,17.4782069 98.4767067,17.2888085 L98.4767067,17.2888085 Z M99.8785103,17.2888085 C99.8785103,17.0357543 99.720264,16.8076174 99.4775618,16.7107778 C99.2348596,16.6139382 98.9554969,16.6674666 98.7697407,16.846403 C98.5839839,17.0253393 98.5284155,17.2944451 98.6289458,17.5282367 C98.7294767,17.7620283 98.9663086,17.9144644 99.229008,17.9144644 C99.5877183,17.9144644 99.8785103,17.6343487 99.8785103,17.2888085 L99.8785103,17.2888085 Z M99.5981496,17.6849072 L99.47666,17.6849072 L99.2383533,17.3203164 L99.0607916,17.3203164 L99.0607916,17.6849072 L98.9579926,17.6849072 L98.9579926,16.8927098 L99.3177889,16.8927098 C99.3872922,16.8890194 99.4565815,16.9029894 99.5187141,16.9332199 C99.5785931,16.9707266 99.6139736,17.0354819 99.6121677,17.1042625 C99.6121677,17.2573007 99.4953507,17.3158152 99.3504976,17.3203164 L99.5981496,17.6849072 Z M99.2103173,17.234795 C99.3271342,17.234795 99.504696,17.234795 99.504696,17.0907591 C99.504696,16.9467233 99.3925517,16.9512244 99.2897528,16.9512244 L99.0607916,16.9512244 L99.0607916,17.234795 L99.2103173,17.234795 Z" id="Shape" fill="#FFFFFF" fill-rule="nonzero"></path>
                </g>
            </g>
        </g>
    </g>
</svg>